<svg xmlns="http://www.w3.org/2000/svg" xml:space="preserve" width="2000" height="1500" data-id="lg_Kv2SsLnXDmcYfmWp2a" data-version="1" viewBox="0 0 2000 1500"><path fill="#915eff" stroke="transparent" d="M0 0h2000v1500H0z"/><g data-padding="20"><g transform="translate(-992.397 -717.099)scale(1.8612)"><rect width="266.372" height="559.35" x="537.302" y="108.577" fill="none" rx="0" ry="0" transform="translate(400 400)"/><path fill="#f2f2f2" d="M1104.858 948.592q.73 0-7.97-.85-8.7-.84-22.6-2.41-13.9-1.58-29.61-3.39t-29.61-3.38-22.48-2.66-8.09-1.09q-10.88-19.09-13.78-34.68t-1.21-27.44q1.69-11.84 5.08-19.57 3.38-7.74 4.83-11.36 29.49 2.17 56.92 14.74t50.88 28.52l14.5-6.04q2.18-10.88 3.14-22.72.97-11.84-2.17-22.24-11.6-3.14-30.94-11.72t-40.36-20.18q-21.03-11.6-37.71-23.93t-22.72-22.72q-2.17-8.22-3.74-22.72-1.58-14.5-2.66-31.3-1.09-16.8-2.06-32.39-.96-15.59-2.17-25.98 17.4-28.04 39.51-45.08 22.12-17.04 49.19-28.64 8.94 2.66 19.94 7.98t20.91 10.63q9.91 5.32 14.74 7.74l77.35-3.63q5.8 22.96 3.62 42.42-2.17 19.46-8.58 34.32-6.4 14.87-13.9 24.05-7.49 9.19-12.57 11.6-10.87-2.41-27.31-9.3-16.43-6.89-33.96-17.89-17.52-11-32.26-25.5h-3.15l-9.18 50.76q9.91 5.56 28.52 18.13 18.61 12.56 40.24 28.88 21.64 16.31 40.73 33.72 19.09 17.4 29.49 32.87 1.21 11.6-1.82 28.88-3.02 17.28-7.13 33.48-4.1 16.19-6.76 24.65-13.78 13.78-28.89 25.62-15.1 11.84-34.2 19.82"/></g><path fill="transparent" stroke="transparent" stroke-width="2.013" d="M732.335 187.5h535.33v1125h-535.33z"/></g></svg>